<?xml version="1.0" encoding="UTF-8"?>
<!DOCTYPE svg PUBLIC "-//W3C//DTD SVG 1.1//EN" "http://www.w3.org/Graphics/SVG/1.1/DTD/svg11.dtd">
<!-- Creator: CorelDRAW 2018 (64-Bit Evaluation Version) -->
<svg xmlns="http://www.w3.org/2000/svg" xml:space="preserve" width="1.85572in" height="0.231543in" version="1.1" style="shape-rendering:geometricPrecision; text-rendering:geometricPrecision; image-rendering:optimizeQuality; fill-rule:evenodd; clip-rule:evenodd"
viewBox="0 0 297313.29 37096.67"
 xmlns:xlink="http://www.w3.org/1999/xlink">
 <defs>
  <style type="text/css">
   <![CDATA[
    .fil2 {fill:#FEFEFE;fill-rule:nonzero}
    .fil1 {fill:#2B2A29;fill-rule:nonzero}
    .fil0 {fill:#2B2A29;fill-rule:nonzero}
    .fil3 {fill:#E52936;fill-rule:nonzero}
   ]]>
  </style>
 </defs>
 <g id="Layer_x0020_1">
  <metadata id="CorelCorpID_0Corel-Layer"/>
  <g id="_2791389376848">
   <path class="fil0" d="M41923.3 28877.78l5384.23 7203.36c480.01,638.97 1230.63,1015.53 2028.55,1015.53l6952.31 0c514.71,0 944.89,-387.29 997.87,-898.21l923.44 -8813.71c73.17,-698.26 -115.43,-1397.78 -527.32,-1967.99l-14448.98 -19908.9c-5208.24,-6892.39 -15381.88,-7397 -21249.91,-1053.38l-21198.19 21560.88c-326.74,331.78 -585.98,733.58 -705.83,1182.69 -141.92,534.26 -141.92,1241.35 425.14,1928.25 969.49,1179.53 2892.7,4262.72 6535.38,6780.75 1141.69,790.35 2510.45,1189.63 3899.4,1189.63l29053.13 0 1053.38 -7989.29c58.66,-435.23 614.37,-580.94 877.4,-229.6z"/>
   <path class="fil1" d="M210109.75 162.74l24684.44 0c2068.92,0 4102.51,638.34 5755.75,1884.73 1371.29,1033.83 2848.54,2552.08 3801.63,4695.43 806.75,1816.61 1041.4,3837.59 811.8,5812.52l-1259.01 10851.72c-322.95,2802.5 -1260.27,5516.69 -2853.59,7842.96 -1012.38,1482.93 -2388.71,2986.68 -4230.55,4178.2 -1718.84,1110.15 -3736.66,1667.75 -5783.5,1667.75l-24842.76 0c-4482.23,0 -8575.91,-2663.73 -10277.09,-6812.28 -88.94,-212.57 -174.09,-434.6 -254.2,-662.31 -753.14,-2120.64 -936.06,-4402.12 -662.31,-6636.3l920.29 -7510.54c434.6,-3562.57 1680.99,-7004.04 3787.13,-9912.5 179.77,-251.05 369.63,-500.83 567.06,-746.2 2379.25,-2974.7 6025.72,-4653.17 9834.92,-4653.17z"/>
   <path class="fil2" d="M39787.52 26012.2l-9179.55 -12880.89c-115.43,-164.63 -353.23,-180.4 -492,-33.43l-11864.73 12621.02c-207.52,220.77 -51.72,580.94 250.41,580.94l21136.37 0c149.49,0 234.65,-167.15 149.49,-287.63z"/>
   <path class="fil1" d="M78404.97 162.74l-14212.44 0 -4253.26 36933.3 38222.59 0c0,0 -7617.14,-2155.96 -5922.9,-10675.1l-16957.54 -40.37 3123.56 -26217.83z"/>
   <path class="fil1" d="M112752.13 23635.47l10298.53 -8465.52c963.81,-792.24 2171.73,-1225.58 3421.91,-1225.58l17.66 0c818.74,0 1612.24,-416.94 1978.09,-1149.26 312.86,-626.35 312.86,-1353 -939.21,-1757.95l-13113.02 0c-1905.55,0 -3562.57,1411.66 -3756.22,3308.37 -3.78,28.38 -6.94,54.88 -8.83,83.89 -172.2,2026.02 -761.97,5586.7 -1081.77,7440.53 -187.97,1103.21 -37.22,2246.79 504.61,3223.22 342.51,612.47 820.63,1141.69 1465.27,1206.03 1616.03,163.37 28184.56,0 28184.56,0l-1453.92 10796.84 -30850.81 0c-6192.24,0 -11551.87,-4556.66 -12279.77,-10706.64 -11.35,-95.25 -23.34,-193.01 -32.17,-290.78 -30.28,-293.31 -23.34,-591.66 10.09,-884.34l1190.26 -9994.5c415.04,-3475.53 1621.7,-6832.47 3667.28,-9675.34 38.48,-54.88 79.48,-109.75 120.48,-165.26 2427.82,-3304.59 6317.13,-5215.81 10417.75,-5215.81l22307.71 0c2992.99,0 5921.01,1117.09 8002.54,3267.37 2292.84,2366.01 4028.08,6192.87 1805.89,12048.28 0,0 -1232.52,4766.08 -5941.83,7009.08 -1425.53,679.97 -3003.08,984 -4581.89,996.61l-19353.19 150.75z"/>
   <path class="fil1" d="M147636.69 162.74l-4603.34 36933.3 34219.74 0c3361.36,0 6650.18,-1156.2 9178.92,-3372.71 189.86,-166.52 380.35,-338.72 568.95,-521.64 2649.22,-2535.68 4226.14,-5993.55 4620.37,-9641.27l1093.75 -10103c326.74,-3023.9 -252.31,-6105.19 -1802.73,-8721.62 -1301.27,-2198.22 -3354.42,-4241.91 -6532.85,-4573.06l-36742.81 0z"/>
   <path class="fil2" d="M157689.86 32639.67l687.54 0 6945.38 -5183.64c864.78,-644.64 1914.38,-994.72 2992.36,-994.72l5290.24 0c1324.61,0 2557.13,-698.26 3208.71,-1852.56 360.8,-638.97 683.75,-1475.36 863.52,-2547.67 442.17,-2657.42 710.24,-6375.79 808.01,-7865.66 41,-664.2 -44.15,-1333.44 -304.03,-1946.55 -271.23,-645.91 -747.46,-1291.18 -1553.58,-1291.18l-16554.48 0 -2383.67 21681.99z"/>
   <path class="fil3" d="M230462.71 7788.71l-687.54 0 -8275.03 6177.73 -8439.03 0c0,0 -2020.98,1009.23 -2584.25,4400.86 -564.54,3392.26 -847.12,8519.14 -847.12,8519.14 0,0 282.58,2583.62 1896.72,2583.62l16553.22 0 2383.04 -21681.35z"/>
   <path class="fil1" d="M250085.87 162.74l14036.46 0 -1282.35 11409.94c-67.49,609.32 101.55,1231.26 506.51,1687.93 115.43,129.31 227.08,219.51 314.12,219.51l17805.29 0 1512.58 -13317.38 14334.81 0 -2834.04 23525.72c-342.51,2860.53 -1283.61,5634.64 -2873.14,8037.86 -717.81,1084.29 -1609.09,2174.88 -2702.84,3119.77 -1698.02,1470.32 -3887.42,2249.95 -6134.21,2249.95l-37036.12 0 1209.81 -10694.65 31150.43 -58.03c591.66,-1.89 1157.46,-248.52 1559.26,-683.75 246.63,-264.92 399.28,-604.27 438.38,-962.55l92.72 -907.67c28.38,-255.46 -172.2,-477.49 -429.55,-477.49l-22426.29 -35.95c-2235.44,-3.15 -4397.08,-882.44 -5943.09,-2500.36 -1590.16,-1662.07 -3035.25,-4295.52 -2765.28,-8284.49l1466.53 -12328.34z"/>
  </g>
 </g>
</svg>
